<?xml version="1.0" encoding="UTF-8" standalone="no"?>
<!DOCTYPE svg PUBLIC "-//W3C//DTD SVG 1.1//EN" "http://www.w3.org/Graphics/SVG/1.1/DTD/svg11.dtd">
<svg width="100%" height="100%" viewBox="0 0 12 12" version="1.1" xmlns="http://www.w3.org/2000/svg" xmlns:xlink="http://www.w3.org/1999/xlink" xml:space="preserve" xmlns:serif="http://www.serif.com/" style="fill-rule:evenodd;clip-rule:evenodd;stroke-linecap:round;stroke-linejoin:round;stroke-miterlimit:1.5;">
    <g transform="matrix(1,0,0,1,-60,0)">
        <g id="bass">
            <g transform="matrix(2.4535,0,0,2.4535,28.0251,-10.6082)">
                <path d="M17.923,5.302C17.923,4.762 17.485,4.324 16.945,4.324L14.011,4.324C13.471,4.324 13.032,4.762 13.032,5.302L13.032,8.236C13.032,8.776 13.471,9.215 14.011,9.215L16.945,9.215C17.485,9.215 17.923,8.776 17.923,8.236L17.923,5.302Z" style="fill:white;"/>
                <path d="M17.923,5.302C17.923,4.762 17.485,4.324 16.945,4.324L14.011,4.324C13.471,4.324 13.032,4.762 13.032,5.302L13.032,8.236C13.032,8.776 13.471,9.215 14.011,9.215L16.945,9.215C17.485,9.215 17.923,8.776 17.923,8.236L17.923,5.302ZM17.516,5.302L17.516,8.236C17.516,8.551 17.26,8.807 16.945,8.807L14.011,8.807C13.696,8.807 13.44,8.551 13.44,8.236C13.44,8.236 13.44,5.302 13.44,5.302C13.44,4.987 13.696,4.731 14.011,4.731L16.945,4.731C17.26,4.731 17.516,4.987 17.516,5.302Z"/>
            </g>
            <g>
                <g transform="matrix(1,0,0,1,-0.467248,1.03494)">
                    <path d="M64.242,3.59C64.242,2.362 65.239,1.365 66.467,1.365C67.695,1.365 68.692,2.362 68.692,3.59C68.692,5.532 64.242,8.565 64.242,8.565" style="fill:none;stroke:black;stroke-width:1px;"/>
                </g>
                <g transform="matrix(1.4621,0,0,1.4621,-30.6795,-2.63652)">
                    <circle cx="65.012" cy="4.966" r="0.41" style="stroke:black;stroke-width:0.68px;"/>
                </g>
                <g transform="matrix(1.4621,0,0,1.4621,-25.5174,-3.83652)">
                    <circle cx="65.012" cy="4.966" r="0.41"/>
                </g>
                <g transform="matrix(1.4621,0,0,1.4621,-25.5174,-1.43652)">
                    <circle cx="65.012" cy="4.966" r="0.41"/>
                </g>
            </g>
        </g>
    </g>
</svg>
