<?xml version="1.0" encoding="UTF-8" standalone="no"?>
<!DOCTYPE svg PUBLIC "-//W3C//DTD SVG 1.1//EN" "http://www.w3.org/Graphics/SVG/1.1/DTD/svg11.dtd">
<svg width="100%" height="100%" viewBox="0 0 18 18" version="1.1" xmlns="http://www.w3.org/2000/svg" xmlns:xlink="http://www.w3.org/1999/xlink" xml:space="preserve" xmlns:serif="http://www.serif.com/" style="fill-rule:evenodd;clip-rule:evenodd;stroke-linecap:round;stroke-linejoin:round;stroke-miterlimit:1.5;">
    <g transform="matrix(1.42618,0,0,2.26406,0.652861,-3.64961)">
        <path d="M8.983,4.273C8.983,3.668 8.204,3.177 7.244,3.177L3.766,3.177C2.806,3.177 2.027,3.668 2.027,4.273L2.027,6.464C2.027,7.068 2.806,7.559 3.766,7.559L7.244,7.559C8.204,7.559 8.983,7.068 8.983,6.464L8.983,4.273Z" style="fill:none;stroke:black;stroke-width:0.53px;"/>
    </g>
    <g transform="matrix(0.707064,0,0,0.712989,2.97524,2.70434)">
        <path d="M7.819,3.232L8.583,5.803L10.725,4.168L9.819,6.693L12.521,6.619L10.291,8.134L12.521,9.649L9.819,9.575L10.725,12.1L8.583,10.465L7.819,13.037L7.055,10.465L4.914,12.1L5.82,9.575L3.118,9.649L5.347,8.134L3.118,6.619L5.82,6.693L4.914,4.168L7.055,5.803L7.819,3.232Z" style="stroke:black;stroke-width:0.7px;"/>
    </g>
</svg>
