<?xml version="1.0" encoding="UTF-8" standalone="no"?>
<!DOCTYPE svg PUBLIC "-//W3C//DTD SVG 1.1//EN" "http://www.w3.org/Graphics/SVG/1.1/DTD/svg11.dtd">
<svg width="100%" height="100%" viewBox="0 0 12 12" version="1.1" xmlns="http://www.w3.org/2000/svg" xmlns:xlink="http://www.w3.org/1999/xlink" xml:space="preserve" xmlns:serif="http://www.serif.com/" style="fill-rule:evenodd;clip-rule:evenodd;stroke-linecap:round;stroke-linejoin:round;stroke-miterlimit:1.5;">
    <g id="Artboard1" transform="matrix(0.666667,0,0,0.666667,0,0)">
        <rect x="0" y="0" width="18" height="18" style="fill:none;"/>
        <clipPath id="_clip1">
            <rect x="0" y="0" width="18" height="18"/>
        </clipPath>
        <g clip-path="url(#_clip1)">
            <g transform="matrix(3.68025,0,0,3.68025,-47.9624,-15.9122)">
                <path d="M17.923,5.302C17.923,4.762 17.485,4.324 16.945,4.324L14.011,4.324C13.471,4.324 13.032,4.762 13.032,5.302L13.032,8.236C13.032,8.776 13.471,9.215 14.011,9.215L16.945,9.215C17.485,9.215 17.923,8.776 17.923,8.236L17.923,5.302ZM17.516,5.302L17.516,8.236C17.516,8.551 17.26,8.807 16.945,8.807L14.011,8.807C13.696,8.807 13.44,8.551 13.44,8.236L13.44,5.302C13.44,4.987 13.696,4.731 14.011,4.731L16.945,4.731C17.26,4.731 17.516,4.987 17.516,5.302Z"/>
            </g>
            <g transform="matrix(1.5,0,0,1.5,-2.55281,0.0866909)">
                <path d="M7.702,2.055L8.4,4.204L9.746,3.539L9.53,5.024L11.79,5.024L9.962,6.353L11.009,7.427L9.53,7.681L10.228,9.83L8.4,8.502L7.702,9.83L7.004,8.502L5.175,9.83L5.874,7.681L4.395,7.427L5.442,6.353L3.614,5.024L5.874,5.024L5.658,3.539L7.004,4.204L7.702,2.055Z" style="stroke:black;stroke-width:0.5px;"/>
            </g>
        </g>
    </g>
</svg>
