<?xml version="1.0" encoding="UTF-8" standalone="no"?>
<!DOCTYPE svg PUBLIC "-//W3C//DTD SVG 1.1//EN" "http://www.w3.org/Graphics/SVG/1.1/DTD/svg11.dtd">
<svg width="100%" height="100%" viewBox="0 0 12 12" version="1.1" xmlns="http://www.w3.org/2000/svg" xmlns:xlink="http://www.w3.org/1999/xlink" xml:space="preserve" xmlns:serif="http://www.serif.com/" style="fill-rule:evenodd;clip-rule:evenodd;stroke-linecap:round;stroke-linejoin:round;stroke-miterlimit:1.5;">
    <g transform="matrix(1,0,0,1,-96,0)">
        <g transform="matrix(2.4535,0,0,2.4535,64.0251,-10.6082)">
            <g id="flute">
                <path d="M17.923,5.302C17.923,4.762 17.485,4.324 16.945,4.324L14.011,4.324C13.471,4.324 13.032,4.762 13.032,5.302L13.032,8.236C13.032,8.776 13.471,9.215 14.011,9.215L16.945,9.215C17.485,9.215 17.923,8.776 17.923,8.236L17.923,5.302Z" style="fill:white;"/>
                <clipPath id="_clip1">
                    <path d="M17.923,5.302C17.923,4.762 17.485,4.324 16.945,4.324L14.011,4.324C13.471,4.324 13.032,4.762 13.032,5.302L13.032,8.236C13.032,8.776 13.471,9.215 14.011,9.215L16.945,9.215C17.485,9.215 17.923,8.776 17.923,8.236L17.923,5.302Z"/>
                </clipPath>
                <g clip-path="url(#_clip1)">
                    <g transform="matrix(1.45039,-1.45039,0.159148,0.159148,-45.1741,65.6257)">
                        <rect x="40.8" y="1.501" width="2.4" height="8.692" style="stroke:black;stroke-width:0.11px;"/>
                    </g>
                    <g transform="matrix(0.12809,-0.12809,0.192135,0.192135,8.39997,11.6072)">
                        <circle cx="42" cy="6" r="3.6" style="fill:white;stroke:black;stroke-width:0.71px;"/>
                    </g>
                    <g transform="matrix(0.0426968,-0.0426968,0.0640452,0.0640452,13.6765,7.88421)">
                        <circle cx="42" cy="6" r="3.6" style="fill:white;stroke:black;stroke-width:2.12px;"/>
                    </g>
                    <g transform="matrix(0.0426968,-0.0426968,0.0640452,0.0640452,14.2438,7.31684)">
                        <circle cx="42" cy="6" r="3.6" style="fill:white;stroke:black;stroke-width:2.12px;"/>
                    </g>
                    <g transform="matrix(0.0426968,-0.0426968,0.0640452,0.0640452,14.7434,6.81729)">
                        <circle cx="42" cy="6" r="3.6" style="fill:white;stroke:black;stroke-width:2.12px;"/>
                    </g>
                </g>
                <path d="M17.923,5.302C17.923,4.762 17.485,4.324 16.945,4.324L14.011,4.324C13.471,4.324 13.032,4.762 13.032,5.302L13.032,8.236C13.032,8.776 13.471,9.215 14.011,9.215L16.945,9.215C17.485,9.215 17.923,8.776 17.923,8.236L17.923,5.302ZM17.516,5.302L17.516,8.236C17.516,8.551 17.26,8.807 16.945,8.807L14.011,8.807C13.696,8.807 13.44,8.551 13.44,8.236L13.44,5.302C13.44,4.987 13.696,4.731 14.011,4.731L16.945,4.731C17.26,4.731 17.516,4.987 17.516,5.302Z"/>
            </g>
        </g>
    </g>
</svg>
