<?xml version="1.0" encoding="UTF-8" standalone="no"?>
<!DOCTYPE svg PUBLIC "-//W3C//DTD SVG 1.1//EN" "http://www.w3.org/Graphics/SVG/1.1/DTD/svg11.dtd">
<svg width="100%" height="100%" viewBox="0 0 12 12" version="1.1" xmlns="http://www.w3.org/2000/svg" xmlns:xlink="http://www.w3.org/1999/xlink" xml:space="preserve" xmlns:serif="http://www.serif.com/" style="fill-rule:evenodd;clip-rule:evenodd;stroke-linecap:round;stroke-linejoin:round;stroke-miterlimit:1.5;">
    <g transform="matrix(1,0,0,1,-36,0)">
        <g id="kick">
            <g transform="matrix(2.4535,0,0,2.4535,4.02508,-10.6082)">
                <path d="M17.923,5.302C17.923,4.762 17.485,4.324 16.945,4.324L14.011,4.324C13.471,4.324 13.032,4.762 13.032,5.302L13.032,8.236C13.032,8.776 13.471,9.215 14.011,9.215L16.945,9.215C17.485,9.215 17.923,8.776 17.923,8.236L17.923,5.302Z" style="fill:white;"/>
                <path d="M17.923,5.302C17.923,4.762 17.485,4.324 16.945,4.324L14.011,4.324C13.471,4.324 13.032,4.762 13.032,5.302L13.032,8.236C13.032,8.776 13.471,9.215 14.011,9.215L16.945,9.215C17.485,9.215 17.923,8.776 17.923,8.236L17.923,5.302ZM17.516,5.302L17.516,8.236C17.516,8.551 17.26,8.807 16.945,8.807L14.011,8.807C13.696,8.807 13.44,8.551 13.44,8.236L13.44,5.302C13.44,4.987 13.696,4.731 14.011,4.731L16.945,4.731C17.26,4.731 17.516,4.987 17.516,5.302Z"/>
            </g>
            <g transform="matrix(0.666667,0,0,1,15.2,0)">
                <circle cx="42" cy="6" r="3.6" style="stroke:black;stroke-width:0.47px;"/>
            </g>
            <g transform="matrix(1,0,0,0.828313,0,1.1564)">
                <rect x="40.8" y="1.501" width="2.4" height="8.692" style="stroke:black;stroke-width:0.44px;"/>
            </g>
            <g transform="matrix(0.666667,0,0,1,12.8,0)">
                <circle cx="42" cy="6" r="3.6" style="fill:white;stroke:black;stroke-width:0.47px;"/>
            </g>
            <g transform="matrix(0.444444,0,0,0.666667,22.1333,2)">
                <circle cx="42" cy="6" r="3.6" style="fill:none;stroke:black;stroke-width:0.35px;stroke-dasharray:0.71,1.06,0,0;"/>
            </g>
            <g transform="matrix(0.333333,0,0,0.5,26.8,3)">
                <circle cx="42" cy="6" r="3.6" style="fill:none;stroke:black;stroke-width:0.47px;stroke-dasharray:0.94,1.41,0,0;"/>
            </g>
        </g>
    </g>
</svg>
