<?xml version="1.0" encoding="UTF-8" standalone="no"?>
<!DOCTYPE svg PUBLIC "-//W3C//DTD SVG 1.1//EN" "http://www.w3.org/Graphics/SVG/1.1/DTD/svg11.dtd">
<svg width="100%" height="100%" viewBox="0 0 12 12" version="1.1" xmlns="http://www.w3.org/2000/svg" xmlns:xlink="http://www.w3.org/1999/xlink" xml:space="preserve" xmlns:serif="http://www.serif.com/" style="fill-rule:evenodd;clip-rule:evenodd;stroke-linecap:round;stroke-linejoin:round;stroke-miterlimit:1.5;">
    <g transform="matrix(1,0,0,1,-48,0)">
        <g id="snare">
            <g transform="matrix(2.4535,0,0,2.4535,16.0251,-10.6082)">
                <path d="M17.923,5.302C17.923,4.762 17.485,4.324 16.945,4.324L14.011,4.324C13.471,4.324 13.032,4.762 13.032,5.302L13.032,8.236C13.032,8.776 13.471,9.215 14.011,9.215L16.945,9.215C17.485,9.215 17.923,8.776 17.923,8.236L17.923,5.302Z" style="fill:white;"/>
                <path d="M17.923,5.302C17.923,4.762 17.485,4.324 16.945,4.324L14.011,4.324C13.471,4.324 13.032,4.762 13.032,5.302L13.032,8.236C13.032,8.776 13.471,9.215 14.011,9.215L16.945,9.215C17.485,9.215 17.923,8.776 17.923,8.236L17.923,5.302ZM17.516,5.302L17.516,8.236C17.516,8.551 17.26,8.807 16.945,8.807L14.011,8.807C13.696,8.807 13.44,8.551 13.44,8.236L13.44,5.302C13.44,4.987 13.696,4.731 14.011,4.731L16.945,4.731C17.26,4.731 17.516,4.987 17.516,5.302Z"/>
            </g>
            <g transform="matrix(2.04108e-17,0.333333,-1,6.12323e-17,60,-5.525)">
                <circle cx="42" cy="6" r="3.6" style="stroke:black;stroke-width:0.54px;"/>
            </g>
            <g transform="matrix(6.12323e-17,1,-0.828313,5.07195e-17,58.8436,-34.725)">
                <rect x="40.8" y="1.501" width="2.4" height="8.692" style="stroke:black;stroke-width:0.44px;"/>
            </g>
            <g transform="matrix(2.04108e-17,0.333333,-1,6.12323e-17,60,-7.925)">
                <circle cx="42" cy="6" r="3.6" style="fill:white;stroke:black;stroke-width:0.54px;"/>
            </g>
            <g transform="matrix(1.49278,0,0,0.979592,-26.584,-0.451531)">
                <path d="M50.365,5.438L50.671,5.272L50.435,5.079L50.798,4.947L50.641,4.734L51.048,4.641L50.975,4.417L51.41,4.365L51.425,4.138L51.871,4.131L51.973,3.91L52.414,3.947L52.598,3.74L53.017,3.82L53.277,3.635L53.656,3.755L53.983,3.6L54.309,3.755L54.688,3.635L54.949,3.82L55.367,3.74L55.551,3.947L55.992,3.91L56.094,4.131L56.54,4.138L56.555,4.365L56.99,4.417L56.918,4.641L57.325,4.734L57.167,4.947L57.53,5.079L57.295,5.272L57.6,5.438" style="fill:none;stroke:black;stroke-width:0.2px;"/>
            </g>
            <g transform="matrix(1.32691,0,0,0.870748,-17.6302,0.940306)">
                <path d="M50.365,5.438L50.671,5.272L50.435,5.079L50.798,4.947L50.641,4.734L51.048,4.641L50.975,4.417L51.41,4.365L51.425,4.138L51.871,4.131L51.973,3.91L52.414,3.947L52.598,3.74L53.017,3.82L53.277,3.635L53.656,3.755L53.983,3.6L54.309,3.755L54.688,3.635L54.949,3.82L55.367,3.74L55.551,3.947L55.992,3.91L56.094,4.131L56.54,4.138L56.555,4.365L56.99,4.417L56.918,4.641L57.325,4.734L57.167,4.947L57.53,5.079L57.295,5.272L57.6,5.438" style="fill:none;stroke:black;stroke-width:0.22px;"/>
            </g>
        </g>
    </g>
</svg>
