<?xml version="1.0" encoding="UTF-8" standalone="no"?><!DOCTYPE svg PUBLIC "-//W3C//DTD SVG 1.1//EN" "http://www.w3.org/Graphics/SVG/1.1/DTD/svg11.dtd"><svg width="546px" height="546px" version="1.1" xmlns="http://www.w3.org/2000/svg" xmlns:xlink="http://www.w3.org/1999/xlink" xml:space="preserve" xmlns:serif="http://www.serif.com/" style="fill-rule:evenodd;clip-rule:evenodd;stroke-linecap:round;stroke-linejoin:round;stroke-miterlimit:1.5;"><g transform="matrix(1,0,0,1,-267.222,-117.222)"><g transform="matrix(-1,-1.22465e-16,1.44985e-17,-1,1182.32,570)"><g transform="matrix(-0.874247,0.485482,-0.485482,-0.874247,1650.57,364.961)"><text x="782.334px" y="412.918px" style="font-family:'EBGaramond-Bold', 'EB Garamond';font-weight:700;font-size:33.333px;">G</text></g><g transform="matrix(-0.963507,0.267684,-0.267684,-0.963507,1550.23,626.557)"><text x="734.68px" y="435.616px" style="font-family:'Esoterik';font-size:33.333px;">🜄</text></g><g transform="matrix(-0.993341,0.115208,-0.115208,-0.993341,1432.01,775.881)"><text x="694.545px" y="445.989px" style="font-family:'NotoSerifHebrew-Regular', 'Noto Serif Hebrew';font-size:33.333px;">W</text></g><g transform="matrix(-0.999996,0.00290704,-0.00290704,-0.999996,1298.65,864.744)"><text x="648.72px" y="449.983px" style="font-family:'NotoSerifHebrew-Regular', 'Noto Serif Hebrew';font-size:33.333px;">i</text></g><g transform="matrix(-0.996341,-0.0854703,0.0854703,-0.996341,1216.06,918.35)"><text x="626.977px" y="449.81px" style="font-family:'NotoSerifHebrew-Regular', 'Noto Serif Hebrew';font-size:33.333px;">n</text></g><g transform="matrix(-0.983794,-0.179302,0.179302,-0.983794,1105.46,959.139)"><text x="594.571px" y="446.278px" style="font-family:'NotoSerifHebrew-Regular', 'Noto Serif Hebrew';font-size:33.333px;">t</text></g><g transform="matrix(-0.962418,-0.271573,0.271573,-0.962418,1011.94,990.363)"><text x="572.191px" y="441.828px" style="font-family:'NotoSerifHebrew-Regular', 'Noto Serif Hebrew';font-size:33.333px;">e</text></g><g transform="matrix(-0.92612,-0.37723,0.37723,-0.92612,897.882,1009.24)"><text x="544.506px" y="433.359px" style="font-family:'NotoSerifHebrew-Regular', 'Noto Serif Hebrew';font-size:33.333px;">r</text></g><g transform="matrix(-0.870141,-0.492804,0.492804,-0.870141,780.343,1017.83)"><text x="519.885px" y="422.766px" style="font-family:'NotoSerifHebrew-Regular', 'Noto Serif Hebrew';font-size:33.333px;">ה</text></g></g><g transform="matrix(-1.76069e-16,1,-1,-8.71732e-17,720,-252.32)"><g transform="matrix(-0.920995,0.389574,-0.389574,-0.920995,1620.55,484.379)"><text x="764.537px" y="423.178px" style="font-family:'Esoterik';font-size:33.333px;">🜃</text></g><g transform="matrix(-0.966384,0.257101,-0.257101,-0.966384,1531.61,642.654)"><text x="725.972px" y="438.122px" style="font-family:'NotoSerifHebrew-Regular', 'Noto Serif Hebrew';font-size:33.333px;">S</text></g><g transform="matrix(-0.988259,0.152788,-0.152788,-0.988259,1449.92,745.368)"><text x="697.603px" y="445.06px" style="font-family:'NotoSerifHebrew-Regular', 'Noto Serif Hebrew';font-size:33.333px;">p</text></g><g transform="matrix(-0.998672,0.051521,-0.051521,-0.998672,1353.08,830.135)"><text x="666.271px" y="449.174px" style="font-family:'NotoSerifHebrew-Regular', 'Noto Serif Hebrew';font-size:33.333px;">r</text></g><g transform="matrix(-0.999637,-0.0269521,0.0269521,-0.999637,1267.55,883.824)"><text x="639.508px" y="450.036px" style="font-family:'NotoSerifHebrew-Regular', 'Noto Serif Hebrew';font-size:33.333px;">i</text></g><g transform="matrix(-0.993187,-0.11653,0.11653,-0.993187,1182.76,934.23)"><text x="617.716px" y="449.207px" style="font-family:'NotoSerifHebrew-Regular', 'Noto Serif Hebrew';font-size:33.333px;">n</text></g><g transform="matrix(-0.974716,-0.223446,0.223446,-0.974716,1064.15,976.571)"><text x="585.439px" y="444.746px" style="font-family:'NotoSerifHebrew-Regular', 'Noto Serif Hebrew';font-size:33.333px;">g</text></g><g transform="matrix(-0.912725,-0.408574,0.408574,-0.912725,867.672,1014.36)"><text x="538.614px" y="431.176px" style="font-family:'NotoSerifHebrew-Regular', 'Noto Serif Hebrew';font-size:33.333px;">ה</text></g></g><g transform="matrix(1,0,1.07966e-16,1,-102.32,210)"><g transform="matrix(0.828014,0.560707,-0.560707,0.828014,316.369,-213.78)"><text x="488.555px" y="403.266px" style="font-family:'EBGaramond-Bold', 'EB Garamond';font-weight:700;font-size:33.333px;">C</text></g><g transform="matrix(0.943761,0.33063,-0.33063,0.943761,175.722,-162.864)"><text x="533.935px" y="429.544px" style="font-family:'Esoterik';font-size:33.333px;">🜂</text></g><g transform="matrix(0.97919,0.202946,-0.202946,0.97919,103.912,-118.044)"><text x="573.375px" y="442.112px" style="font-family:'NotoSerifHebrew-Regular', 'Noto Serif Hebrew';font-size:33.333px;">S</text></g><g transform="matrix(0.99521,0.0977591,-0.0977591,0.99521,47.7191,-67.7718)"><text x="602.066px" y="447.519px" style="font-family:'NotoSerifHebrew-Regular', 'Noto Serif Hebrew';font-size:33.333px;">u</text></g><g transform="matrix(0.999688,-0.0249706,0.0249706,0.999688,-11.3239,4.87101)"><text x="634.276px" y="450.297px" style="font-family:'NotoSerifHebrew-Regular', 'Noto Serif Hebrew';font-size:33.333px;">m</text></g><g transform="matrix(0.985895,-0.167364,0.167364,0.985895,-67.3713,108.651)"><text x="676.844px" y="448.473px" style="font-family:'NotoSerifHebrew-Regular', 'Noto Serif Hebrew';font-size:33.333px;">m</text></g><g transform="matrix(0.95551,-0.294959,0.294959,0.95551,-101.155,220.937)"><text x="718.632px" y="440.231px" style="font-family:'NotoSerifHebrew-Regular', 'Noto Serif Hebrew';font-size:33.333px;">e</text></g><g transform="matrix(0.915538,-0.402231,0.402231,0.915538,-114.849,326.334)"><text x="746.08px" y="431.083px" style="font-family:'NotoSerifHebrew-Regular', 'Noto Serif Hebrew';font-size:33.333px;">r</text></g><g transform="matrix(0.809514,-0.587101,0.587101,0.809514,-96.9257,531.143)"><text x="787.183px" y="409.384px" style="font-family:'NotoSerifHebrew-Regular', 'Noto Serif Hebrew';font-size:33.333px;">י</text></g></g><g transform="matrix(2.98533e-16,-1,1,2.09638e-16,360,1032.32)"><g transform="matrix(-0.837513,0.546417,-0.546417,-0.837513,1658.34,286.549)"><text x="791.523px" y="406.51px" style="font-family:'EBGaramond-Bold', 'EB Garamond';font-weight:700;font-size:33.333px;">F</text></g><g transform="matrix(-0.944045,0.329816,-0.329816,-0.944045,1589.83,556.157)"><text x="750.567px" y="429.606px" style="font-family:'Esoterik';font-size:33.333px;">🜁</text></g><g transform="matrix(-0.981282,0.192579,-0.192579,-0.981282,1487.56,706.608)"><text x="711.058px" y="442.265px" style="font-family:'NotoSerifHebrew-Regular', 'Noto Serif Hebrew';font-size:33.333px;">A</text></g><g transform="matrix(-0.996705,0.0811104,-0.0811104,-0.996705,1386.64,806.622)"><text x="677.615px" y="448.142px" style="font-family:'NotoSerifHebrew-Regular', 'Noto Serif Hebrew';font-size:33.333px;">u</text></g><g transform="matrix(-0.999962,-0.00872076,0.00872076,-0.999962,1287.19,872.357)"><text x="645.422px" y="450.039px" style="font-family:'NotoSerifHebrew-Regular', 'Noto Serif Hebrew';font-size:33.333px;">t</text></g><g transform="matrix(-0.995027,-0.0996093,0.0996093,-0.995027,1200.6,925.717)"><text x="622.579px" y="449.553px" style="font-family:'NotoSerifHebrew-Regular', 'Noto Serif Hebrew';font-size:33.333px;">u</text></g><g transform="matrix(-0.973541,-0.228512,0.228512,-0.973541,1071.01,982.632)"><text x="590.462px" y="445.978px" style="font-family:'NotoSerifHebrew-Regular', 'Noto Serif Hebrew';font-size:33.333px;">m</text></g><g transform="matrix(-0.929963,-0.367652,0.367652,-0.929963,912.292,1010.77)"><text x="549.245px" y="435.156px" style="font-family:'NotoSerifHebrew-Regular', 'Noto Serif Hebrew';font-size:33.333px;">n</text></g><g transform="matrix(-0.828402,-0.560135,0.560135,-0.828402,705.78,1007.83)"><text x="502.16px" y="412.475px" style="font-family:'NotoSerifHebrew-Regular', 'Noto Serif Hebrew';font-size:33.333px;">ו</text></g></g><circle cx="540" cy="390" r="270" style="fill:none;stroke:black;stroke-width:5.56px;"/><g transform="matrix(0.642692,0,0,0.642692,32.3315,49.3155)"><circle cx="789.91" cy="530.09" r="350.09" style="fill:white;stroke:black;stroke-width:9.05px;stroke-linecap:butt;"/></g><g transform="matrix(0.541274,-0.312504,0.5,0.866025,-82.2877,-12.8244)"><path d="M180,660L900,660" style="fill:none;stroke:black;stroke-width:6.98px;stroke-linecap:butt;"/></g><g transform="matrix(0.312504,-0.541274,0.866025,0.5,-200.329,352.288)"><path d="M180,660L900,660" style="fill:none;stroke:black;stroke-width:6.98px;stroke-linecap:butt;"/></g><g transform="matrix(-0.312504,-0.541274,0.866025,-0.5,137.176,1012.29)"><path d="M180,660L900,660" style="fill:none;stroke:black;stroke-width:6.98px;stroke-linecap:butt;"/></g><g transform="matrix(-0.541274,-0.312504,0.5,-0.866025,502.288,1130.33)"><path d="M180,660L900,660" style="fill:none;stroke:black;stroke-width:6.98px;stroke-linecap:butt;"/></g><g transform="matrix(-2.13045e-08,-0.3125,1,-3.0318e-08,-120,446.25)"><path d="M180,660L900,660" style="fill:none;stroke:black;stroke-width:7.85px;stroke-linecap:butt;"/></g><g transform="matrix(0.514153,0,0,0.514153,133.865,117.452)"><circle cx="789.91" cy="530.09" r="350.09" style="fill:white;stroke:black;stroke-width:11.32px;stroke-linecap:butt;"/></g><g transform="matrix(0.625,-4.91643e-09,-4.91643e-09,1,202.5,-270)"><path d="M180,660L900,660" style="fill:none;stroke:black;stroke-width:6.98px;stroke-linecap:butt;"/></g><g transform="matrix(0.433021,-5.70644e-09,-2.18917e-09,1.564,306.169,-732.238)"><path d="M180,660C420,685.526 660,685.625 900,660" style="fill:none;stroke:black;stroke-width:5.07px;stroke-linecap:butt;"/></g><g transform="matrix(0.433013,-8.25249e-09,-2.18913e-09,2.26181,306.173,-1012.79)"><path d="M180,660C420,642.295 660,642.329 900,660" style="fill:none;stroke:black;stroke-width:3.57px;stroke-linecap:butt;"/></g><g transform="matrix(0.25,-2.68973e-08,-4.6057e-09,3.51159,405,-2083.54)"><path d="M180,660C420,673.67 660,673.582 900,660" style="fill:none;stroke:black;stroke-width:2.34px;stroke-linecap:butt;"/></g><g transform="matrix(0.25,-2.15179e-08,-4.6057e-09,2.80928,405,-1308.24)"><path d="M180,660C420,642.975 660,642.959 900,660" style="fill:none;stroke:black;stroke-width:2.92px;stroke-linecap:butt;"/></g><g transform="matrix(-1.69344e-08,-0.145833,1,-2.81329e-08,-120,641.25)"><path d="M180,660L900,660" style="fill:none;stroke:black;stroke-width:8.14px;stroke-linecap:butt;"/></g></g></svg>